<?xml version="1.0" standalone="no"?><!DOCTYPE svg PUBLIC "-//W3C//DTD SVG 1.1//EN" "http://www.w3.org/Graphics/SVG/1.1/DTD/svg11.dtd"><svg t="1577509729840" class="icon" viewBox="0 0 1024 1024" version="1.1" xmlns="http://www.w3.org/2000/svg" p-id="1965" xmlns:xlink="http://www.w3.org/1999/xlink" width="200" height="200"><defs><style type="text/css"></style></defs><path d="M129.04681219 453.08412443h58.91587421v29.45793848h-58.91587421zM-47.70081315 541.45793709h235.66349955v29.45793848H-47.70081315z" fill="#1782D2" p-id="1966"></path><path d="M467.81309366 703.47659458m-73.64484343 0a73.64484342 73.64484342 0 1 0 147.28968686 0 73.64484342 73.64484342 0 1 0-147.28968686 0Z" fill="#1782D2" p-id="1967"></path><path d="M850.76628145 703.47659458m-73.64484342 0a73.64484342 73.64484342 0 1 0 147.28968824 0 73.64484342 73.64484342 0 1 0-147.28968824 0Z" fill="#1782D2" p-id="1968"></path><path d="M992.16438174 497.27103077l-61.86166888-111.94016181c-14.72896923-14.72896923-14.72896923-20.62055582-35.34952505-20.62055721h-117.83174978v-88.37381268c0-14.72896923-14.72896923-29.45793709-29.4579371-29.4579371H246.87856197c-14.72896923 0-29.45793709 11.78317456-29.4579371 29.4579371v385.89898248c0 14.72896923 14.72896923 29.45793709 29.4579371 29.4579371h117.83174978c8.83738127-38.29531837 38.29531837-88.37381268 88.37381268-88.37381268h29.45793848c47.13269964 5.89158797 82.4822247 41.24111305 88.37381266 88.37381268h176.74762536c0-47.13269964 41.24111305-88.37381268 88.37381267-88.37381268h29.4579371c47.13269964 2.9457933 85.42801938 41.24111305 88.37381267 88.37381268h29.4579371c14.72896923 0 29.45793709-14.72896923 29.45793848-29.4579371v-103.10278191c-2.9457933-23.56635051-8.83738127-44.18690634-20.62055721-61.86166887zM924.41112627 541.45793709h-117.83175114v-117.83174977h58.91587557l58.91587557 88.37381268v29.45793709zM70.13093663 364.71031175h147.28968824v29.45793848H70.13093663z" fill="#1782D2" p-id="1969"></path></svg>